<mxfile host="app.diagrams.net" modified="2024-02-28T01:44:49.030Z" agent="Mozilla/5.0 (Macintosh; Intel Mac OS X 10_15_7) AppleWebKit/537.36 (KHTML, like Gecko) Chrome/121.0.0.0 Safari/537.36" etag="j2xYG6DwcXXqC2vbk9qK" version="22.1.21" type="github">
  <diagram name="Page-1" id="GnvURoskgF6pgVR7ltKW">
    <mxGraphModel dx="2261" dy="1955" grid="1" gridSize="10" guides="1" tooltips="1" connect="1" arrows="1" fold="1" page="1" pageScale="1" pageWidth="827" pageHeight="1169" math="0" shadow="0">
      <root>
        <mxCell id="0" />
        <mxCell id="1" parent="0" />
        <mxCell id="fp_4tm2POYkT8Q4frhIq-3" value="" style="rounded=0;whiteSpace=wrap;html=1;" parent="1" vertex="1">
          <mxGeometry x="-18" y="-60" width="998" height="620" as="geometry" />
        </mxCell>
        <mxCell id="F4uf8b6JVxHDHdUwgC62-13" style="edgeStyle=orthogonalEdgeStyle;rounded=0;orthogonalLoop=1;jettySize=auto;html=1;" parent="1" source="fp_4tm2POYkT8Q4frhIq-5" edge="1">
          <mxGeometry relative="1" as="geometry">
            <mxPoint x="279" y="160" as="targetPoint" />
          </mxGeometry>
        </mxCell>
        <mxCell id="fp_4tm2POYkT8Q4frhIq-5" value="API Gateway" style="sketch=0;points=[[0,0,0],[0.25,0,0],[0.5,0,0],[0.75,0,0],[1,0,0],[0,1,0],[0.25,1,0],[0.5,1,0],[0.75,1,0],[1,1,0],[0,0.25,0],[0,0.5,0],[0,0.75,0],[1,0.25,0],[1,0.5,0],[1,0.75,0]];outlineConnect=0;fontColor=#232F3E;fillColor=#8C4FFF;strokeColor=#ffffff;dashed=0;verticalLabelPosition=bottom;verticalAlign=top;align=center;html=1;fontSize=12;fontStyle=0;aspect=fixed;shape=mxgraph.aws4.resourceIcon;resIcon=mxgraph.aws4.api_gateway;" parent="1" vertex="1">
          <mxGeometry x="240" y="220" width="78" height="78" as="geometry" />
        </mxCell>
        <mxCell id="fp_4tm2POYkT8Q4frhIq-26" value="" style="group" parent="1" vertex="1" connectable="0">
          <mxGeometry x="-10" y="60" width="170" height="490" as="geometry" />
        </mxCell>
        <mxCell id="fp_4tm2POYkT8Q4frhIq-24" value="" style="rounded=0;whiteSpace=wrap;html=1;" parent="fp_4tm2POYkT8Q4frhIq-26" vertex="1">
          <mxGeometry y="20.42" width="170" height="469.58" as="geometry" />
        </mxCell>
        <mxCell id="fp_4tm2POYkT8Q4frhIq-1" value="Qualtrics Cloud" style="html=1;whiteSpace=wrap;strokeColor=none;fillColor=#0079D6;labelPosition=center;verticalLabelPosition=middle;verticalAlign=top;align=center;fontSize=12;outlineConnect=0;spacingTop=-6;fontColor=#FFFFFF;sketch=0;shape=mxgraph.sitemap.cloud;" parent="fp_4tm2POYkT8Q4frhIq-26" vertex="1">
          <mxGeometry y="389.99833333333333" width="170" height="91.875" as="geometry" />
        </mxCell>
        <mxCell id="fp_4tm2POYkT8Q4frhIq-27" value="&lt;font style=&quot;font-size: 15px;&quot;&gt;Qualtrics&lt;/font&gt;" style="text;html=1;strokeColor=none;fillColor=none;align=center;verticalAlign=middle;whiteSpace=wrap;rounded=0;" parent="fp_4tm2POYkT8Q4frhIq-26" vertex="1">
          <mxGeometry y="20.416666666666664" width="60" height="30.624999999999996" as="geometry" />
        </mxCell>
        <mxCell id="fp_4tm2POYkT8Q4frhIq-28" value="&lt;font style=&quot;font-size: 15px;&quot;&gt;vCloud&lt;/font&gt;" style="points=[[0,0],[0.25,0],[0.5,0],[0.75,0],[1,0],[1,0.25],[1,0.5],[1,0.75],[1,1],[0.75,1],[0.5,1],[0.25,1],[0,1],[0,0.75],[0,0.5],[0,0.25]];outlineConnect=0;gradientColor=none;html=1;whiteSpace=wrap;fontSize=12;fontStyle=0;container=1;pointerEvents=0;collapsible=0;recursiveResize=0;shape=mxgraph.aws4.group;grIcon=mxgraph.aws4.group_aws_cloud_alt;strokeColor=#232F3E;fillColor=none;verticalAlign=top;align=left;spacingLeft=30;fontColor=#232F3E;dashed=0;" parent="1" vertex="1">
          <mxGeometry x="170" y="-50" width="800" height="600" as="geometry" />
        </mxCell>
        <mxCell id="F4uf8b6JVxHDHdUwgC62-27" style="edgeStyle=orthogonalEdgeStyle;rounded=0;orthogonalLoop=1;jettySize=auto;html=1;" parent="fp_4tm2POYkT8Q4frhIq-28" target="fp_4tm2POYkT8Q4frhIq-31" edge="1">
          <mxGeometry relative="1" as="geometry">
            <mxPoint x="391" y="390" as="sourcePoint" />
          </mxGeometry>
        </mxCell>
        <mxCell id="F4uf8b6JVxHDHdUwgC62-28" value="&lt;font color=&quot;#ff0000&quot;&gt;4. Save&lt;/font&gt;" style="edgeLabel;html=1;align=center;verticalAlign=middle;resizable=0;points=[];" parent="F4uf8b6JVxHDHdUwgC62-27" vertex="1" connectable="0">
          <mxGeometry x="-0.0803" y="3" relative="1" as="geometry">
            <mxPoint x="-2" as="offset" />
          </mxGeometry>
        </mxCell>
        <mxCell id="F4uf8b6JVxHDHdUwgC62-29" style="edgeStyle=orthogonalEdgeStyle;rounded=0;orthogonalLoop=1;jettySize=auto;html=1;" parent="fp_4tm2POYkT8Q4frhIq-28" edge="1">
          <mxGeometry relative="1" as="geometry">
            <mxPoint x="600" y="530" as="targetPoint" />
            <mxPoint x="480" y="329" as="sourcePoint" />
            <Array as="points">
              <mxPoint x="481" y="329" />
              <mxPoint x="481" y="330" />
              <mxPoint x="530" y="330" />
              <mxPoint x="530" y="530" />
              <mxPoint x="580" y="530" />
            </Array>
          </mxGeometry>
        </mxCell>
        <mxCell id="F4uf8b6JVxHDHdUwgC62-30" value="&lt;font color=&quot;#ff0000&quot;&gt;5. Update&lt;/font&gt;" style="edgeLabel;html=1;align=center;verticalAlign=middle;resizable=0;points=[];" parent="F4uf8b6JVxHDHdUwgC62-29" vertex="1" connectable="0">
          <mxGeometry x="-0.0325" y="-1" relative="1" as="geometry">
            <mxPoint y="-2" as="offset" />
          </mxGeometry>
        </mxCell>
        <mxCell id="0HW9DNBdsQePclkJlZNj-11" style="edgeStyle=orthogonalEdgeStyle;rounded=0;orthogonalLoop=1;jettySize=auto;html=1;" parent="fp_4tm2POYkT8Q4frhIq-28" target="0HW9DNBdsQePclkJlZNj-9" edge="1">
          <mxGeometry relative="1" as="geometry">
            <mxPoint x="685" y="180" as="sourcePoint" />
          </mxGeometry>
        </mxCell>
        <mxCell id="fp_4tm2POYkT8Q4frhIq-39" style="edgeStyle=orthogonalEdgeStyle;rounded=0;orthogonalLoop=1;jettySize=auto;html=1;" parent="1" source="fp_4tm2POYkT8Q4frhIq-1" target="fp_4tm2POYkT8Q4frhIq-5" edge="1">
          <mxGeometry relative="1" as="geometry">
            <Array as="points">
              <mxPoint x="70" y="260" />
            </Array>
          </mxGeometry>
        </mxCell>
        <mxCell id="fp_4tm2POYkT8Q4frhIq-54" value="HTTP WebHook for &lt;br&gt;Survey Complete Event" style="edgeLabel;html=1;align=center;verticalAlign=middle;resizable=0;points=[];" parent="fp_4tm2POYkT8Q4frhIq-39" vertex="1" connectable="0">
          <mxGeometry x="-0.3471" y="3" relative="1" as="geometry">
            <mxPoint y="21" as="offset" />
          </mxGeometry>
        </mxCell>
        <mxCell id="F4uf8b6JVxHDHdUwgC62-3" value="To be Added&amp;nbsp;" style="rounded=0;whiteSpace=wrap;html=1;arcSize=10;fillColor=#d5e8d4;strokeColor=#82b366;fontFamily=Times New Roman;fontSize=15;dashed=1;" parent="1" vertex="1">
          <mxGeometry x="-10" y="-50" width="100" height="30" as="geometry" />
        </mxCell>
        <mxCell id="F4uf8b6JVxHDHdUwgC62-4" value="Keep It" style="rounded=0;whiteSpace=wrap;html=1;arcSize=10;fontFamily=Times New Roman;fontSize=15;" parent="1" vertex="1">
          <mxGeometry x="-10" y="30" width="100" height="30" as="geometry" />
        </mxCell>
        <mxCell id="F4uf8b6JVxHDHdUwgC62-5" value="To be Modified" style="rounded=0;whiteSpace=wrap;html=1;arcSize=10;fillColor=#f8cecc;strokeColor=#b85450;fontFamily=Times New Roman;fontSize=15;" parent="1" vertex="1">
          <mxGeometry x="-10" y="-10" width="100" height="30" as="geometry" />
        </mxCell>
        <mxCell id="F4uf8b6JVxHDHdUwgC62-7" style="edgeStyle=orthogonalEdgeStyle;rounded=0;orthogonalLoop=1;jettySize=auto;html=1;" parent="1" target="fp_4tm2POYkT8Q4frhIq-1" edge="1">
          <mxGeometry relative="1" as="geometry">
            <mxPoint x="480" y="300" as="sourcePoint" />
            <Array as="points">
              <mxPoint x="410" y="300" />
              <mxPoint x="410" y="500" />
            </Array>
          </mxGeometry>
        </mxCell>
        <mxCell id="F4uf8b6JVxHDHdUwgC62-8" value="2. Retrieve Survey Response" style="edgeLabel;html=1;align=center;verticalAlign=middle;resizable=0;points=[];fontColor=#FF0000;" parent="F4uf8b6JVxHDHdUwgC62-7" vertex="1" connectable="0">
          <mxGeometry x="0.5328" y="-1" relative="1" as="geometry">
            <mxPoint x="1" as="offset" />
          </mxGeometry>
        </mxCell>
        <mxCell id="F4uf8b6JVxHDHdUwgC62-11" value="" style="group;strokeColor=default;rounded=1;arcSize=12;" parent="1" vertex="1" connectable="0">
          <mxGeometry x="200" y="40" width="160" height="120" as="geometry" />
        </mxCell>
        <object placeholders="1" c4Name="Qualtrics Event Receiver" c4Type="ContainerScopeBoundary" c4Application="AWS Lambda" label="&lt;font style=&quot;font-size: 12px;&quot;&gt;&lt;b style=&quot;font-size: 12px;&quot;&gt;&lt;div style=&quot;text-align: left; font-size: 12px;&quot;&gt;%c4Name%&lt;/div&gt;&lt;/b&gt;&lt;/font&gt;&lt;div style=&quot;text-align: left; font-size: 12px;&quot;&gt;[%c4Application%]&lt;/div&gt;" id="F4uf8b6JVxHDHdUwgC62-9">
          <mxCell style="rounded=1;fontSize=12;whiteSpace=wrap;html=1;dashed=1;arcSize=20;fillColor=#f8cecc;strokeColor=#b85450;labelBackgroundColor=none;align=left;verticalAlign=bottom;labelBorderColor=none;spacingTop=0;spacing=10;dashPattern=8 4;metaEdit=1;rotatable=0;perimeter=rectanglePerimeter;noLabel=0;labelPadding=0;allowArrows=0;connectable=0;expand=0;recursiveResize=0;editable=1;pointerEvents=0;absoluteArcSize=1;points=[[0.25,0,0],[0.5,0,0],[0.75,0,0],[1,0.25,0],[1,0.5,0],[1,0.75,0],[0.75,1,0],[0.5,1,0],[0.25,1,0],[0,0.75,0],[0,0.5,0],[0,0.25,0]];" parent="F4uf8b6JVxHDHdUwgC62-11" vertex="1">
            <mxGeometry width="160" height="120" as="geometry" />
          </mxCell>
        </object>
        <mxCell id="fp_4tm2POYkT8Q4frhIq-34" value="" style="sketch=0;points=[[0,0,0],[0.25,0,0],[0.5,0,0],[0.75,0,0],[1,0,0],[0,1,0],[0.25,1,0],[0.5,1,0],[0.75,1,0],[1,1,0],[0,0.25,0],[0,0.5,0],[0,0.75,0],[1,0.25,0],[1,0.5,0],[1,0.75,0]];outlineConnect=0;fontColor=#232F3E;fillColor=#ED7100;strokeColor=#ffffff;dashed=0;verticalLabelPosition=bottom;verticalAlign=top;align=center;html=1;fontSize=12;fontStyle=0;aspect=fixed;shape=mxgraph.aws4.resourceIcon;resIcon=mxgraph.aws4.lambda;" parent="F4uf8b6JVxHDHdUwgC62-11" vertex="1">
          <mxGeometry x="45" width="70" height="70" as="geometry" />
        </mxCell>
        <mxCell id="F4uf8b6JVxHDHdUwgC62-14" style="edgeStyle=orthogonalEdgeStyle;rounded=0;orthogonalLoop=1;jettySize=auto;html=1;entryX=0.5;entryY=0;entryDx=0;entryDy=0;entryPerimeter=0;" parent="1" source="fp_4tm2POYkT8Q4frhIq-34" target="fp_4tm2POYkT8Q4frhIq-7" edge="1">
          <mxGeometry relative="1" as="geometry">
            <Array as="points">
              <mxPoint x="280" y="-40" />
              <mxPoint x="559" y="-40" />
            </Array>
          </mxGeometry>
        </mxCell>
        <mxCell id="F4uf8b6JVxHDHdUwgC62-15" value="Put" style="edgeLabel;html=1;align=center;verticalAlign=middle;resizable=0;points=[];" parent="F4uf8b6JVxHDHdUwgC62-14" vertex="1" connectable="0">
          <mxGeometry x="0.0132" y="-3" relative="1" as="geometry">
            <mxPoint y="-4" as="offset" />
          </mxGeometry>
        </mxCell>
        <mxCell id="F4uf8b6JVxHDHdUwgC62-17" value="" style="group" parent="1" vertex="1" connectable="0">
          <mxGeometry x="482" y="12" width="160" height="120" as="geometry" />
        </mxCell>
        <object placeholders="1" c4Name="Survey Event Queue" c4Type="ContainerScopeBoundary" c4Application="AWS SQS" label="&lt;font style=&quot;font-size: 12px;&quot;&gt;&lt;b style=&quot;font-size: 12px;&quot;&gt;&lt;div style=&quot;text-align: left; font-size: 12px;&quot;&gt;%c4Name%&lt;/div&gt;&lt;/b&gt;&lt;/font&gt;&lt;div style=&quot;text-align: left; font-size: 12px;&quot;&gt;[%c4Application%]&lt;/div&gt;" id="F4uf8b6JVxHDHdUwgC62-16">
          <mxCell style="rounded=1;fontSize=12;whiteSpace=wrap;html=1;dashed=1;arcSize=20;fillColor=#d5e8d4;strokeColor=#82b366;labelBackgroundColor=none;align=left;verticalAlign=bottom;labelBorderColor=none;spacingTop=0;spacing=10;dashPattern=8 4;metaEdit=1;rotatable=0;perimeter=rectanglePerimeter;noLabel=0;labelPadding=0;allowArrows=0;connectable=0;expand=0;recursiveResize=0;editable=1;pointerEvents=0;absoluteArcSize=1;points=[[0.25,0,0],[0.5,0,0],[0.75,0,0],[1,0.25,0],[1,0.5,0],[1,0.75,0],[0.75,1,0],[0.5,1,0],[0.25,1,0],[0,0.75,0],[0,0.5,0],[0,0.25,0]];" parent="F4uf8b6JVxHDHdUwgC62-17" vertex="1">
            <mxGeometry width="160" height="120" as="geometry" />
          </mxCell>
        </object>
        <mxCell id="fp_4tm2POYkT8Q4frhIq-7" value="" style="sketch=0;points=[[0,0,0],[0.25,0,0],[0.5,0,0],[0.75,0,0],[1,0,0],[0,1,0],[0.25,1,0],[0.5,1,0],[0.75,1,0],[1,1,0],[0,0.25,0],[0,0.5,0],[0,0.75,0],[1,0.25,0],[1,0.5,0],[1,0.75,0]];outlineConnect=0;fontColor=#232F3E;fillColor=#E7157B;strokeColor=#ffffff;dashed=0;verticalLabelPosition=bottom;verticalAlign=top;align=center;html=1;fontSize=12;fontStyle=0;aspect=fixed;shape=mxgraph.aws4.resourceIcon;resIcon=mxgraph.aws4.sqs;" parent="F4uf8b6JVxHDHdUwgC62-17" vertex="1">
          <mxGeometry x="41.717791411042946" width="70" height="70" as="geometry" />
        </mxCell>
        <mxCell id="fp_4tm2POYkT8Q4frhIq-63" style="edgeStyle=orthogonalEdgeStyle;rounded=0;orthogonalLoop=1;jettySize=auto;html=1;dashed=1;" parent="1" edge="1">
          <mxGeometry relative="1" as="geometry">
            <Array as="points">
              <mxPoint x="410" y="270" />
              <mxPoint x="410" y="80" />
            </Array>
            <mxPoint x="480" y="270" as="sourcePoint" />
            <mxPoint x="480" y="80" as="targetPoint" />
          </mxGeometry>
        </mxCell>
        <mxCell id="fp_4tm2POYkT8Q4frhIq-68" value="3. Reput with Delay&lt;br&gt;for Retry If Get a &lt;br&gt;401 Response" style="edgeLabel;html=1;align=center;verticalAlign=middle;resizable=0;points=[];fontColor=#FF0000;" parent="fp_4tm2POYkT8Q4frhIq-63" vertex="1" connectable="0">
          <mxGeometry x="-0.0667" y="-1" relative="1" as="geometry">
            <mxPoint y="2" as="offset" />
          </mxGeometry>
        </mxCell>
        <mxCell id="F4uf8b6JVxHDHdUwgC62-26" value="" style="group" parent="1" vertex="1" connectable="0">
          <mxGeometry x="480" y="220" width="170" height="122" as="geometry" />
        </mxCell>
        <object placeholders="1" c4Name="Survey Event Consumer" c4Type="ContainerScopeBoundary" c4Application="AWS Lambda" label="&lt;font style=&quot;font-size: 12px;&quot;&gt;&lt;b style=&quot;font-size: 12px;&quot;&gt;&lt;div style=&quot;text-align: left; font-size: 12px;&quot;&gt;%c4Name%&lt;/div&gt;&lt;/b&gt;&lt;/font&gt;&lt;div style=&quot;text-align: left; font-size: 12px;&quot;&gt;[%c4Application%]&lt;/div&gt;" id="F4uf8b6JVxHDHdUwgC62-22">
          <mxCell style="rounded=1;fontSize=12;whiteSpace=wrap;html=1;dashed=1;arcSize=20;fillColor=#d5e8d4;strokeColor=#82b366;labelBackgroundColor=none;align=left;verticalAlign=bottom;labelBorderColor=none;spacingTop=0;spacing=10;dashPattern=8 4;metaEdit=1;rotatable=0;perimeter=rectanglePerimeter;noLabel=0;labelPadding=0;allowArrows=0;connectable=0;expand=0;recursiveResize=0;editable=1;pointerEvents=0;absoluteArcSize=1;points=[[0.25,0,0],[0.5,0,0],[0.75,0,0],[1,0.25,0],[1,0.5,0],[1,0.75,0],[0.75,1,0],[0.5,1,0],[0.25,1,0],[0,0.75,0],[0,0.5,0],[0,0.25,0]];imageWidth=24;" parent="F4uf8b6JVxHDHdUwgC62-26" vertex="1">
            <mxGeometry width="170" height="122" as="geometry" />
          </mxCell>
        </object>
        <mxCell id="7ReaSPWUxedLwBsVeBKH-1" style="edgeStyle=orthogonalEdgeStyle;rounded=0;orthogonalLoop=1;jettySize=auto;html=1;" parent="F4uf8b6JVxHDHdUwgC62-26" target="F4uf8b6JVxHDHdUwgC62-24" edge="1">
          <mxGeometry relative="1" as="geometry">
            <mxPoint x="85" y="-90" as="sourcePoint" />
          </mxGeometry>
        </mxCell>
        <mxCell id="7ReaSPWUxedLwBsVeBKH-2" value="&lt;font color=&quot;#ff0000&quot;&gt;1. Invoke&lt;/font&gt;" style="edgeLabel;html=1;align=center;verticalAlign=middle;resizable=0;points=[];" parent="7ReaSPWUxedLwBsVeBKH-1" vertex="1" connectable="0">
          <mxGeometry x="-0.0496" y="1" relative="1" as="geometry">
            <mxPoint as="offset" />
          </mxGeometry>
        </mxCell>
        <mxCell id="F4uf8b6JVxHDHdUwgC62-24" value="" style="sketch=0;points=[[0,0,0],[0.25,0,0],[0.5,0,0],[0.75,0,0],[1,0,0],[0,1,0],[0.25,1,0],[0.5,1,0],[0.75,1,0],[1,1,0],[0,0.25,0],[0,0.5,0],[0,0.75,0],[1,0.25,0],[1,0.5,0],[1,0.75,0]];outlineConnect=0;fontColor=#232F3E;fillColor=#ED7100;strokeColor=#ffffff;dashed=0;verticalLabelPosition=bottom;verticalAlign=top;align=center;html=1;fontSize=12;fontStyle=0;aspect=fixed;shape=mxgraph.aws4.resourceIcon;resIcon=mxgraph.aws4.lambda;" parent="F4uf8b6JVxHDHdUwgC62-26" vertex="1">
          <mxGeometry x="49.75977653631285" width="70" height="70" as="geometry" />
        </mxCell>
        <mxCell id="F4uf8b6JVxHDHdUwgC62-37" value="" style="group;strokeColor=default;rounded=1;" parent="1" vertex="1" connectable="0">
          <mxGeometry x="472.5" y="414" width="177.5" height="120" as="geometry" />
        </mxCell>
        <object placeholders="1" c4Name="Qualtrics Survey Response" c4Type="ContainerScopeBoundary" c4Application="AWS DynamoDB" label="&lt;font style=&quot;font-size: 12px;&quot;&gt;&lt;b style=&quot;font-size: 12px;&quot;&gt;&lt;div style=&quot;text-align: left; font-size: 12px;&quot;&gt;%c4Name%&lt;/div&gt;&lt;/b&gt;&lt;/font&gt;&lt;div style=&quot;text-align: left; font-size: 12px;&quot;&gt;[%c4Application%]&lt;/div&gt;" id="F4uf8b6JVxHDHdUwgC62-35">
          <mxCell style="rounded=1;fontSize=12;whiteSpace=wrap;html=1;dashed=1;arcSize=20;fillColor=#f8cecc;strokeColor=#b85450;labelBackgroundColor=none;align=left;verticalAlign=bottom;labelBorderColor=none;spacingTop=0;spacing=10;dashPattern=8 4;metaEdit=1;rotatable=0;perimeter=rectanglePerimeter;noLabel=0;labelPadding=0;allowArrows=0;connectable=0;expand=0;recursiveResize=0;editable=1;pointerEvents=0;absoluteArcSize=1;points=[[0.25,0,0],[0.5,0,0],[0.75,0,0],[1,0.25,0],[1,0.5,0],[1,0.75,0],[0.75,1,0],[0.5,1,0],[0.25,1,0],[0,0.75,0],[0,0.5,0],[0,0.25,0]];" parent="F4uf8b6JVxHDHdUwgC62-37" vertex="1">
            <mxGeometry width="177.5" height="120" as="geometry" />
          </mxCell>
        </object>
        <mxCell id="fp_4tm2POYkT8Q4frhIq-31" value="" style="sketch=0;points=[[0,0,0],[0.25,0,0],[0.5,0,0],[0.75,0,0],[1,0,0],[0,1,0],[0.25,1,0],[0.5,1,0],[0.75,1,0],[1,1,0],[0,0.25,0],[0,0.5,0],[0,0.75,0],[1,0.25,0],[1,0.5,0],[1,0.75,0]];outlineConnect=0;fontColor=#232F3E;fillColor=#C925D1;strokeColor=#ffffff;dashed=0;verticalLabelPosition=bottom;verticalAlign=top;align=center;html=1;fontSize=12;fontStyle=0;aspect=fixed;shape=mxgraph.aws4.resourceIcon;resIcon=mxgraph.aws4.dynamodb;" parent="F4uf8b6JVxHDHdUwgC62-37" vertex="1">
          <mxGeometry x="53.71052631578946" width="70" height="70" as="geometry" />
        </mxCell>
        <mxCell id="0HW9DNBdsQePclkJlZNj-3" value="" style="group" parent="1" vertex="1" connectable="0">
          <mxGeometry x="770" y="12" width="170" height="120" as="geometry" />
        </mxCell>
        <object placeholders="1" c4Name="Survey Event Queue(DLQ)" c4Type="ContainerScopeBoundary" c4Application="AWS SQS" label="&lt;font style=&quot;font-size: 12px;&quot;&gt;&lt;b style=&quot;font-size: 12px;&quot;&gt;&lt;div style=&quot;text-align: left; font-size: 12px;&quot;&gt;%c4Name%&lt;/div&gt;&lt;/b&gt;&lt;/font&gt;&lt;div style=&quot;text-align: left; font-size: 12px;&quot;&gt;[%c4Application%]&lt;/div&gt;" id="0HW9DNBdsQePclkJlZNj-1">
          <mxCell style="rounded=1;fontSize=12;whiteSpace=wrap;html=1;dashed=1;arcSize=20;fillColor=#d5e8d4;strokeColor=#82b366;labelBackgroundColor=none;align=left;verticalAlign=bottom;labelBorderColor=none;spacingTop=0;spacing=10;dashPattern=8 4;metaEdit=1;rotatable=0;perimeter=rectanglePerimeter;noLabel=0;labelPadding=0;allowArrows=0;connectable=0;expand=0;recursiveResize=0;editable=1;pointerEvents=0;absoluteArcSize=1;points=[[0.25,0,0],[0.5,0,0],[0.75,0,0],[1,0.25,0],[1,0.5,0],[1,0.75,0],[0.75,1,0],[0.5,1,0],[0.25,1,0],[0,0.75,0],[0,0.5,0],[0,0.25,0]];" parent="0HW9DNBdsQePclkJlZNj-3" vertex="1">
            <mxGeometry width="170" height="120" as="geometry" />
          </mxCell>
        </object>
        <mxCell id="0HW9DNBdsQePclkJlZNj-5" style="edgeStyle=orthogonalEdgeStyle;rounded=0;orthogonalLoop=1;jettySize=auto;html=1;dashed=1;" parent="0HW9DNBdsQePclkJlZNj-3" edge="1">
          <mxGeometry relative="1" as="geometry">
            <mxPoint x="2" y="68" as="targetPoint" />
            <mxPoint x="-128" y="68" as="sourcePoint" />
          </mxGeometry>
        </mxCell>
        <mxCell id="0HW9DNBdsQePclkJlZNj-6" value="&lt;font color=&quot;#ff0000&quot;&gt;Undelivered Event&lt;/font&gt;" style="edgeLabel;html=1;align=center;verticalAlign=middle;resizable=0;points=[];" parent="0HW9DNBdsQePclkJlZNj-5" vertex="1" connectable="0">
          <mxGeometry x="-0.1692" y="2" relative="1" as="geometry">
            <mxPoint x="6" y="1" as="offset" />
          </mxGeometry>
        </mxCell>
        <mxCell id="0HW9DNBdsQePclkJlZNj-2" value="" style="sketch=0;points=[[0,0,0],[0.25,0,0],[0.5,0,0],[0.75,0,0],[1,0,0],[0,1,0],[0.25,1,0],[0.5,1,0],[0.75,1,0],[1,1,0],[0,0.25,0],[0,0.5,0],[0,0.75,0],[1,0.25,0],[1,0.5,0],[1,0.75,0]];outlineConnect=0;fontColor=#232F3E;fillColor=#E7157B;strokeColor=#ffffff;dashed=0;verticalLabelPosition=bottom;verticalAlign=top;align=center;html=1;fontSize=12;fontStyle=0;aspect=fixed;shape=mxgraph.aws4.resourceIcon;resIcon=mxgraph.aws4.sqs;" parent="0HW9DNBdsQePclkJlZNj-3" vertex="1">
          <mxGeometry x="49.657791411043036" width="70" height="70" as="geometry" />
        </mxCell>
        <mxCell id="0HW9DNBdsQePclkJlZNj-7" value="" style="group;strokeColor=default;fillColor=default;rounded=1;" parent="1" vertex="1" connectable="0">
          <mxGeometry x="770" y="410" width="190" height="126" as="geometry" />
        </mxCell>
        <object placeholders="1" c4Name="Qualtrics Survey Distribution" c4Type="ContainerScopeBoundary" c4Application="AWS RDS" label="&lt;font style=&quot;font-size: 12px;&quot;&gt;&lt;b style=&quot;font-size: 12px;&quot;&gt;&lt;div style=&quot;text-align: left; font-size: 12px;&quot;&gt;%c4Name%&lt;/div&gt;&lt;/b&gt;&lt;/font&gt;&lt;div style=&quot;text-align: left; font-size: 12px;&quot;&gt;[%c4Application%]&lt;/div&gt;" id="F4uf8b6JVxHDHdUwgC62-32">
          <mxCell style="rounded=1;fontSize=12;whiteSpace=wrap;html=1;dashed=1;arcSize=20;fillColor=#f8cecc;strokeColor=#b85450;labelBackgroundColor=none;align=left;verticalAlign=bottom;labelBorderColor=none;spacingTop=0;spacing=10;dashPattern=8 4;metaEdit=1;rotatable=0;perimeter=rectanglePerimeter;noLabel=0;labelPadding=0;allowArrows=0;connectable=0;expand=0;recursiveResize=0;editable=1;pointerEvents=0;absoluteArcSize=1;points=[[0.25,0,0],[0.5,0,0],[0.75,0,0],[1,0.25,0],[1,0.5,0],[1,0.75,0],[0.75,1,0],[0.5,1,0],[0.25,1,0],[0,0.75,0],[0,0.5,0],[0,0.25,0]];" parent="0HW9DNBdsQePclkJlZNj-7" vertex="1">
            <mxGeometry width="190" height="126" as="geometry" />
          </mxCell>
        </object>
        <mxCell id="fp_4tm2POYkT8Q4frhIq-32" value="" style="sketch=0;points=[[0,0,0],[0.25,0,0],[0.5,0,0],[0.75,0,0],[1,0,0],[0,1,0],[0.25,1,0],[0.5,1,0],[0.75,1,0],[1,1,0],[0,0.25,0],[0,0.5,0],[0,0.75,0],[1,0.25,0],[1,0.5,0],[1,0.75,0]];outlineConnect=0;fontColor=#232F3E;fillColor=#C925D1;strokeColor=#ffffff;dashed=0;verticalLabelPosition=bottom;verticalAlign=top;align=center;html=1;fontSize=12;fontStyle=0;aspect=fixed;shape=mxgraph.aws4.resourceIcon;resIcon=mxgraph.aws4.rds;" parent="0HW9DNBdsQePclkJlZNj-7" vertex="1">
          <mxGeometry x="56" width="70" height="70" as="geometry" />
        </mxCell>
        <mxCell id="0HW9DNBdsQePclkJlZNj-12" value="" style="group" parent="1" vertex="1" connectable="0">
          <mxGeometry x="770" y="220" width="170" height="120" as="geometry" />
        </mxCell>
        <object placeholders="1" c4Name="Monitor" c4Type="ContainerScopeBoundary" c4Application="AWS CloudWatch" label="&lt;font style=&quot;font-size: 12px;&quot;&gt;&lt;b style=&quot;font-size: 12px;&quot;&gt;&lt;div style=&quot;text-align: left; font-size: 12px;&quot;&gt;%c4Name%&lt;/div&gt;&lt;/b&gt;&lt;/font&gt;&lt;div style=&quot;text-align: left; font-size: 12px;&quot;&gt;[%c4Application%]&lt;/div&gt;" id="0HW9DNBdsQePclkJlZNj-13">
          <mxCell style="rounded=1;fontSize=12;whiteSpace=wrap;html=1;dashed=1;arcSize=20;fillColor=#d5e8d4;strokeColor=#82b366;labelBackgroundColor=none;align=left;verticalAlign=bottom;labelBorderColor=none;spacingTop=0;spacing=10;dashPattern=8 4;metaEdit=1;rotatable=0;perimeter=rectanglePerimeter;noLabel=0;labelPadding=0;allowArrows=0;connectable=0;expand=0;recursiveResize=0;editable=1;pointerEvents=0;absoluteArcSize=1;points=[[0.25,0,0],[0.5,0,0],[0.75,0,0],[1,0.25,0],[1,0.5,0],[1,0.75,0],[0.75,1,0],[0.5,1,0],[0.25,1,0],[0,0.75,0],[0,0.5,0],[0,0.25,0]];" parent="0HW9DNBdsQePclkJlZNj-12" vertex="1">
            <mxGeometry width="170" height="120" as="geometry" />
          </mxCell>
        </object>
        <mxCell id="0HW9DNBdsQePclkJlZNj-9" value="" style="sketch=0;points=[[0,0,0],[0.25,0,0],[0.5,0,0],[0.75,0,0],[1,0,0],[0,1,0],[0.25,1,0],[0.5,1,0],[0.75,1,0],[1,1,0],[0,0.25,0],[0,0.5,0],[0,0.75,0],[1,0.25,0],[1,0.5,0],[1,0.75,0]];points=[[0,0,0],[0.25,0,0],[0.5,0,0],[0.75,0,0],[1,0,0],[0,1,0],[0.25,1,0],[0.5,1,0],[0.75,1,0],[1,1,0],[0,0.25,0],[0,0.5,0],[0,0.75,0],[1,0.25,0],[1,0.5,0],[1,0.75,0]];outlineConnect=0;fontColor=#232F3E;fillColor=#E7157B;strokeColor=#ffffff;dashed=0;verticalLabelPosition=bottom;verticalAlign=top;align=center;html=1;fontSize=12;fontStyle=0;aspect=fixed;shape=mxgraph.aws4.resourceIcon;resIcon=mxgraph.aws4.cloudwatch_2;" parent="0HW9DNBdsQePclkJlZNj-12" vertex="1">
          <mxGeometry x="50" width="70" height="70" as="geometry" />
        </mxCell>
      </root>
    </mxGraphModel>
  </diagram>
</mxfile>
